# xmcd
#
# Track frame offsets:
#   150
#   12819
#   54656
#   83030
#   94747
#   128391
#   141083
#   153468
#   166873
#   182306
#   190136
#   205232
#   217585
#   233273
#   251721
#   269174
#   282722
#   295011
#
# Disc length: 4174 seconds
#
# Revision: 0
# Processed by: cddbd v1.5.1PL2 Copyright (c) Steve Scherf et al.
# Submitted via: uFREEDB ActiveX Control 1.5
#
DISCID=f1104c12
DTITLE=VARIOS - VARIOS
DYEAR=1900
DGENRE=Country
TTITLE0=CAPA DE REVISTA
TTITLE1=EU TE QUERO DE QUALQUER JEITO
TTITLE2=FAZ DE CONTA
TTITLE3=FAZ TUDO QUE QUER
TTITLE4=MAGIA E MISTERIO
TTITLE5=MEUS OLHOS SAO SEUS
TTITLE6=MINHA VOZ PRA SEMPRE OUVIRA
TTITLE7=O VELHO FALOU
TTITLE8=PAZ DESSE AMOR
TTITLE9=PRECISO PARTIR
TTITLE10=QUEM ESQUECEU NAO CHORA
TTITLE11=TERRA QUERIDA
TTITLE12=UM ANO DE ESPERA
TTITLE13=MELHOR POR TRES
TTITLE14=24 HS DE AMOR
TTITLE15=NAO TEM MAIS VALOR
TTITLE16=PAGINA ARRANCADA
TTITLE17=AS AGUAS DE SAO FRANCISCO
EXTD=
EXTT0=
EXTT1=
EXTT2=
EXTT3=
EXTT4=
EXTT5=
EXTT6=
EXTT7=
EXTT8=
EXTT9=
EXTT10=
EXTT11=
EXTT12=
EXTT13=
EXTT14=
EXTT15=
EXTT16=
EXTT17=
PLAYORDER=
